<?xml version="1.0" encoding="UTF-8"?><svg id="a" xmlns="http://www.w3.org/2000/svg" viewBox="0 0 336.03 264.57"><path d="M336.03,231.4c-2.3,5.6-3.8,11.72-7.05,16.69-7.49,11.46-18.68,16.55-32.39,16.48-23.62-.11-47.24-.03-70.85-.03-61.89,0-123.77-.03-185.66,.02-15.12,.01-26.81-6.12-34.89-18.87C1.34,239.62,0,232.82,.01,225.67c.04-32.15,.02-64.29,.02-96.44,0-20.34-.07-40.68,.02-61.01,.08-18,12.39-33.41,29.7-37.2,3.28-.72,6.72-.92,10.09-.94,15.53-.1,31.05-.04,46.58-.04,1.19,0,2.38,0,3.23,0,1.28-4.57,1.89-9.11,3.77-13.03C98.92,5.54,108.56,.13,121.12,.1c31.27-.09,62.54-.18,93.81,.04,15.06,.1,25.64,8.43,29.4,22.34,.62,2.3,.77,4.73,1.21,7.56,1.12,0,2.27,0,3.43,0,15.85,0,31.71-.03,47.56,0,20.3,.04,34.83,11.95,38.99,31.89,.06,.29,.33,.54,.5,.81V231.4Zm-167.99,16.26c42.43,0,84.85,.02,127.28-.04,2.82,0,5.75-.13,8.43-.89,10.21-2.87,15.64-10.72,15.67-22.61,.12-51.61,.09-103.22-.04-154.83,0-3.5-.72-7.29-2.19-10.44-3.86-8.25-10.91-11.83-19.89-11.83-19.46,0-38.93,0-58.39,0-7.25,0-10.5-3.31-10.51-10.63,0-1.64,0-3.28,0-4.92-.01-10.39-4.34-14.72-14.75-14.73-30.29,0-60.58,0-90.87,0-1.2,0-2.41-.01-3.61,.08-5.99,.47-10.4,4.68-10.96,10.67-.28,3.04-.19,6.11-.23,9.17-.1,7.07-3.4,10.35-10.5,10.35-19.57,0-39.15-.05-58.72,.02-12.83,.05-21.71,8.61-21.73,21.24-.09,52.7-.07,105.41,.05,158.11,0,3.17,.74,6.61,2.1,9.46,4.06,8.54,11.44,11.82,20.59,11.81,42.75-.02,85.51,0,128.26,0Z"/><path d="M246.62,147.61c-.49,43.53-35.67,78.56-78.72,78.26-44.16-.31-78.52-35.43-78.38-78.83,.15-44.66,35.98-78.53,78.93-78.2,44.23,.33,77.81,35.41,78.16,78.77Zm-17.34,.42c.12-34.24-27.04-61.62-61.2-61.68-33.93-.06-61.18,27.17-61.3,61.25-.12,33.85,27.32,61.36,61.23,61.39,33.79,.03,61.16-27.19,61.28-60.96Z"/><path d="M281.72,99.62c-8.65,0-15.69-7.06-15.61-15.64,.08-8.5,6.98-15.38,15.48-15.45,8.7-.07,15.71,6.84,15.74,15.48,.03,8.66-6.92,15.61-15.62,15.61Z"/></svg>