<?xml version="1.0" encoding="UTF-8"?><svg id="a" xmlns="http://www.w3.org/2000/svg" viewBox="0 0 480.37 449.65"><path d="M480.35,105.48c0-9.96-3.74-13.66-13.81-13.67-61.28-.02-122.56-.02-183.83,0-10.25,0-13.89,3.68-13.9,14.06-.02,15.84-.01,31.68-.01,47.51v23.25c-3.06,0-6.07-.04-9.03-.07-6.85-.08-13.32-.16-19.87,.14-38.64,1.75-66.98,20.41-84.22,55.48-5.64,11.46-8.5,24.51-8.52,38.77-.01,9.08,0,18.17,0,27.2v11.27c-19.35,5.41-28.92,17.12-29.23,35.78-.09,5.11,.43,10.13,7.39,10.58v26.85c0,17.65,0,35.3,0,52.95,0,10.08,3.97,14.01,14.12,14.01,52.54,0,105.07,0,157.6,0,56.42,0,112.85,0,169.27,0,10.1,0,14.03-3.96,14.04-14.11,.02-117.97,.02-225.92,0-330.01Zm-121.82,250.24v81.48h-29.59v-81.48h29.59Zm-42.19,17.05v64.56H179.65v-64.56h136.69Zm-149.14-16.98v81.5h-29.84v-81.5h29.84Zm293.84,54.48v-.95c0-2.09,0-4.25-.33-6.35-.91-5.83-4.82-9.35-10.44-9.4-18.46-.18-36.53-.18-53.69,0-6,.06-10.35,4.39-10.57,10.52-.11,3.07,.1,6.18,.3,9.19,.15,2.21,.3,4.5,.33,6.73,.02,1.71-.19,3.47-.39,5.18-.15,1.28-.31,2.6-.37,3.91-.1,1.98-.08,3.98-.05,6.1,0,.79,.02,1.6,.02,2.44h-2.79c-2.58,0-4.96,.01-7.34-.01-1.13-.01-2.29-.08-3.5-.15-.39-.02-.79-.05-1.21-.07v-81.55c2.45-.18,4.3-.99,5.49-2.41,1.6-1.9,2.05-4.78,1.43-9.06-.64-4.43-1.51-8.73-2.43-13.29-.34-1.71-.69-3.42-1.03-5.16h93.6v111.25h-7.01v-6.91c0-6.7,.01-13.35-.01-20Zm-286.56-67.16h-44.1c-.3-5.13,1.4-10.14,4.82-14.16,3.68-4.33,9.06-7.05,14.76-7.47,6.73-.49,12.54,1.2,16.82,4.9,4.39,3.79,7.04,9.56,7.69,16.72ZM458.7,176.3v-36.34h9.47v36.34h-9.47Zm-109.88,95.05c-.11-20.14-6.03-38.65-17.6-55.01-7.46-10.55-17.07-19.64-29.36-27.76h166.19v76.14h-5.42c-4.82,0-9.67,0-14.53,0-1.45,0-2.9-.02-4.35-.04-2.13-.03-4.33-.05-6.5-.03-8.6,.09-13,4.49-13.07,13.06-.07,8.28-.05,16.42-.04,25.04,0,3.47,.01,6.98,.01,10.54-.41,.03-.8,.06-1.19,.09-1.16,.09-2.26,.17-3.33,.17-4.73,0-9.47,.03-14.2,.05-13.45,.06-27.36,.13-41.03-.21-3.52-.09-7.02-1.13-10.73-2.24-1.57-.47-3.19-.95-4.85-1.37,0-3.93,0-7.84,.01-11.72,.01-8.77,.02-17.84-.02-26.71Zm-169.26,84.64c8.28-2.02,7.7-7.5,7.15-12.8-.25-2.36-.5-4.79-.03-7.01,40.48-11.46,81.91-11.42,123.14,.13-1.47,16.1-.88,17.01,6.65,19.74v4.27H179.56v-4.33Zm132.21-31.3c-36.42-10.76-73.91-11.89-114.62-3.44-1.85,.38-3.71,1.09-5.51,1.78-3.05,1.16-5.92,2.26-8.52,1.79-2.12-.38-3.99-2.37-5.97-4.48-1.36-1.45-2.77-2.95-4.35-4.01-2.95-1.97-6.16-3.53-9.56-5.18-1.41-.69-2.87-1.39-4.36-2.16,.34-6.43,.2-13.07,.07-19.49-.26-12.91-.53-26.26,2.86-39.3,9.37-36.03,41.97-61.45,79.26-61.82,14.49-.14,27.5,.1,40.05,4.5,32.63,11.45,54.52,41.11,55.77,75.58,.35,9.54,.25,19.27,.17,28.69-.04,4.14-.08,8.42-.08,12.65-9.5,2.55-16.58,7.25-21.63,14.35-.37,.52-2.34,.9-3.57,.54Zm-21.25-184.83v36.29h-9.49v-36.29h9.49Zm155.54,136.9v36.5h-9.54v-36.5h9.54Zm-9.41-100.48v-36.44h9.49v36.44h-9.49Zm-133.64-.05v-36.4h9.62v36.4h-9.62Zm165.16-48.49h-5.51c-4.86,0-9.7,.01-14.54,0-1.44,0-2.88-.05-4.33-.09-2.48-.08-5.04-.15-7.56-.03-7.76,.38-11.91,4.71-12.02,12.51-.1,7.23-.08,14.58-.06,21.68,0,3.1,.02,6.2,.02,9.29v5.18h-99.2v-7.73c0-7.26,0-14.43,0-21.6,0-.77,0-1.55,.02-2.32,.03-1.96,.05-3.99-.1-5.99-.48-6.17-4.13-10.02-10.27-10.86-1.72-.23-3.48-.23-5.18-.24h-.57c-6.88-.02-13.77-.01-20.98-.01h-7.25v-23.61h187.53v23.83Zm-140.45,200.21c4.16-4.29,9.81-6.66,15.92-6.68h.08c6.06,0,11.69,2.31,15.85,6.52,4.01,4.05,6.24,9.45,6.32,15.26h-44.23c0-5.7,2.14-11.04,6.07-15.1Zm130.85-14.73v-36.31h9.66v36.31h-9.66Zm-9.79,92.44v9.43h-50.6v-9.43h50.6Zm0,21.72v9.93h-51.02c0-.62-.02-1.23-.04-1.85-.05-2.08-.1-4.05,.17-5.99,.09-.68,1.5-1.98,2.15-1.99,13.3-.13,26.38-.12,40.23-.12h8.51Z"/><path d="M120.4,285.78c-1.8-4.94-6.29-5.49-10.36-5.62-12.85-.39-22.89,3.35-30.67,11.48-.08-.25-.16-.5-.24-.73-.36-1.11-.68-2.07-1.13-3l-2.39-4.9c-4.9-10.07-9.96-20.48-15.09-30.64-2-3.97-5.82-5.51-9.97-4.02-4.67,1.68-5.27,5.85-5.28,9.29-.02,11.89-.34,23.62-.96,34.86-.2,3.58-.9,7.21-1.58,10.72-.22,1.13-.44,2.28-.65,3.44-2-2.68-3.68-5.43-5.31-8.11-1.39-2.29-2.71-4.45-4.21-6.56-1.64-2.3-4.92-4.84-8.02-5.24-3.45-.43-6.06,1.83-7.75,6.75-5.27,15.3-5.97,30.12-2.07,44.04,2.03,7.26,5.09,14.3,8.05,21.11,1.2,2.76,2.43,5.6,3.58,8.41-8.26,1.95-10.82,4.96-10.88,12.51-.15,20.51-.15,39.42,.01,57.81,.07,7.81,4.44,12.14,12.31,12.18,10.12,.05,20.17,.08,30.1,.08s20.03-.03,29.77-.09c7.75-.05,12.22-4.51,12.25-12.24,.08-18.17,.08-37.08,0-57.81-.03-7.51-4.02-11.8-11.55-12.4-1.03-.08-2.07-.13-3.16-.17-.32-.01-.64-.03-.97-.04,0-.08,0-.16,.01-.24,.02-.47,.04-.84,.14-1.13,1.74-4.79,3.44-9.59,5.15-14.39,4.53-12.75,9.21-25.93,14.45-38.63,2.35-5.68,7.12-10.52,11.74-15.19l.32-.33c3.17-3.2,6.16-6.23,4.35-11.21Zm-71.29,79.84c.08,.23,.12,.52,.16,.91,0,.08,.02,.15,.03,.23-3.64,.94-6.24-.03-8.89-3.27-13.61-16.64-18.59-35.92-14.78-57.32,.04-.24,.13-.49,.24-.77l2.33,3.23c4.15,5.76,8.08,11.19,12.02,16.73,.24,.34,.39,.94,.38,1.54-.3,13.12,3.5,24.8,8.51,38.71Zm-21.3,71.65v-57.85h59.96v57.85H27.81Zm24.84-108.46c.49-9.36,1.68-18.85,2.82-28.02,.5-4.03,1.02-8.21,1.48-12.31,.4-3.65,.79-7.3,1.22-11.33l.41-3.83c8.13,15.6,14.53,31.22,8.54,49.43-2.59,7.88-4.41,15.85-6.34,24.28-.71,3.09-1.43,6.27-2.2,9.45-3.48-8.67-6.43-17.97-5.92-27.67Zm17.77,38.19c-.01-.32-.03-.64-.05-.96-.06-1.03-.11-2.01,.08-2.92,.62-2.9,1.22-5.81,1.83-8.72,2.01-9.67,4.09-19.68,6.56-29.4,2.23-8.83,4.77-16.21,7.75-22.57,2.65-5.66,7.78-8.87,15.66-9.78-14.39,20.24-21.56,43.46-28.49,65.92-.88,2.87-1.77,5.73-2.67,8.59l-.67-.15Z"/><path d="M106.79,166.27c30.88,0,61.56,0,91.81-.02,10.03,0,13.76-3.73,13.76-13.73,.02-46.31,.02-92.62,0-138.93,0-10.02-3.61-13.57-13.78-13.58C176.33,0,154.07,0,131.82,0h-51.35C58.21,0,35.96,0,13.71,0,3.48,.01,.03,3.44,.02,13.61,0,60.44,0,107.18,.02,152.54c0,10.11,3.59,13.7,13.71,13.7,31.09,.02,62.18,.02,93.07,.02Zm-94.46-12.4V12.14H200.19V153.87H12.33Z"/><path d="M178.32,23.9c-48.16-.02-96.32-.02-144.48,0-6.68,0-8.51,1.86-8.51,8.62-.02,33.71-.02,67.43,0,101.15,0,6.77,1.69,8.43,8.6,8.43,17.51,.02,35.02,.01,52.54,.01h39.51c6.6,0,13.2,0,19.8,0,10.88,0,21.76,0,32.64-.01,7.01,0,8.42-1.44,8.43-8.52,.02-34.27,.02-68.3,0-101.15,0-6.86-1.68-8.53-8.52-8.54Zm-3.64,50.69c-.22-.37-.43-.74-.64-1.09-1.18-2-2.2-3.73-3.16-5.49-2.21-4.02-4.95-9-11.5-9-.05,0-.11,0-.17,0-6.34,.08-9.05,4.91-11.23,8.79-2.81,5-5.7,9.95-8.76,15.2-1.15,1.98-2.33,3.99-3.54,6.07-1.34-2.33-2.64-4.59-3.92-6.81-3.23-5.61-6.27-10.9-9.37-16.19-2.72-4.65-6.39-7.21-10.34-7.21h-.01c-3.97,0-7.67,2.6-10.4,7.3l-.89,1.52c-6.77,11.63-13.77,23.65-20.48,35.58-1.61,2.87-3.23,3.85-6.23,3.8-4.75-.1-9.56-.13-14.31-.13-2.57,0-5.13,0-7.66,.02-3.52,.01-7.05,.02-10.57,.01-.97,0-1.97-.1-3.03-.2-.34-.03-.68-.07-1.03-.1V36.11H174.68v38.47Zm-62.66-2.66l19.91,34.52h-39.86l19.95-34.52Zm35.83,34.98c-1.32-.02-2.98-1.3-4.02-3.11-.84-1.46-1.07-2.89-.6-3.75,3.8-6.9,7.77-13.74,11.97-20.99,1.42-2.45,2.87-4.94,4.35-7.52,1.86,4.55,4.42,8.63,6.9,12.59,4.46,7.11,8.68,13.83,8.9,22.83-2.64,0-5.21,0-7.74,.02-6.83,.02-13.29,.04-19.76-.07Zm26.89,12.51v10.58H37.42v-10.58H174.74Z"/><path d="M61.09,78.06h.11c10.37,0,18.84-8.24,18.9-18.42,.03-5.15-1.93-9.97-5.52-13.56-3.54-3.54-8.26-5.48-13.3-5.48-.05,0-.09,0-.14,0-10.48,.07-18.47,8.12-18.59,18.72-.06,5,1.82,9.68,5.27,13.2,3.49,3.54,8.2,5.51,13.27,5.54Zm.16-25.6c1.77,0,3.46,.71,4.76,1.99,1.32,1.32,2.05,3.05,2.05,4.88,0,3.9-2.92,6.86-6.79,6.87h-.03c-3.8,0-6.79-2.99-6.81-6.82-.02-3.8,3.02-6.91,6.77-6.93h.04Z"/></svg>