<?xml version="1.0" encoding="UTF-8"?><svg id="a" xmlns="http://www.w3.org/2000/svg" viewBox="0 0 389.55 408.81"><path d="M383.51,275.21c-8.19-9.55-21.1-11.16-32.45-3.94-4.99,3.17-9.85,6.53-15.27,10.14V30.7c7.28-1.86,8.6-3.55,8.62-10.89,.01-4.12,.11-8.26-.15-12.37-.26-4.29-2.84-7.21-7.02-7.28-8.97-.16-17.95-.19-26.92-.14V0h-48.33c-.68-.02-1.37,0-2.06,0h-19.78c-18.53,0-37.06,0-55.59,0-5.85,0-11.71-.02-17.56,0-7.13,.03-9.77,2.72-9.81,9.96-.02,3.06,0,6.12,0,9.18,0,8.51,1.68,10.4,10.3,11.48V105.04h-11.75c0-4.16,.02-8.01,0-11.86-.04-7.87-3.28-11.31-11.05-11.36-13.31-.09-26.61-.08-39.92,0-7.95,.04-11.28,3.53-11.32,11.55-.02,3.93,0,7.86,0,11.99-1.66,0-2.71,0-3.76,0-11.57,.07-13.98,2.5-13.98,14.13,0,41.38,0,82.76,0,124.14v4.64h-16.53c-.07-1.2-.1-2.11-.17-3.01-.84-12.07-8.84-19.89-20.89-20.26-4.92-.15-9.85-.05-14.77-.04-15.04,.04-23.25,8.19-23.26,23.15-.02,24.21,0,48.43,0,72.64h0v46.86c-.1,3.23-.12,6.46,.09,9.68,.76,11.21,7.87,18.88,19.11,19.88,6.73,.6,13.59,.59,20.32,.04,10.77-.87,17.34-7.4,19.22-18.08,.13-.74,.34-1.47,.53-2.28,28.79,10.71,57.37,21.33,85.95,31.96h11.18c.46-.22,.91-.57,1.4-.64,37.36-5.39,74.71-10.93,112.11-16.05,14.83-2.03,27.76-7.38,38.82-17.67,14.22-13.23,28.85-26.01,43.28-39.03,10.27-9.27,20.77-18.31,30.65-27.98,8.98-8.79,8.97-22.7,.79-32.23ZM47.21,375.66c-.05,6.48-3.46,9.9-9.82,10.02-5.45,.1-10.91,.14-16.36-.03-5.54-.18-8.87-3.55-9.11-9.07-.09-2.02-.06-4.04-.05-6.06h0v-.61c0-.45,0-.91,0-1.36v-47.79h-.01c0-24.52-.02-49.04,.02-73.56,0-7.12,3.35-10.51,10.45-10.67,4.26-.1,8.52-.03,12.77-.02,9.12,.02,12.13,3.04,12.13,12.21,0,30.74,0,61.47,0,92.21,0,11.58,.06,23.15-.03,34.73ZM169.07,11.75h5.05c22.01,0,44.02,0,66.03-.01h70.17c6.01,0,12.02,0,18.03,.02,1.41,0,2.81,.14,4.24,.21v6.4H169.07v-6.63Zm91.34,281.93c7.58-.04,10.18-2.57,10.2-9.99,.02-7.72,.05-15.44,0-23.15-.05-6.53-2.68-9.12-9.27-9.18-5.85-.05-11.71-.02-17.57-.01-8.84,0-10.86,2-10.87,10.7,0,7.83,0,15.66,0,23.86-2.73-.42-5.04-.78-7.9-1.22,0-7.19,.03-14.33-.02-21.47-.01-1.98-.06-4-.41-5.94-.65-3.6-3-5.71-6.6-5.79-7.85-.17-15.7-.21-23.55-.02-4.5,.11-6.97,2.92-7.16,7.9-.2,5.18-.07,10.38-.08,15.57,0,1.58,0,3.17,0,5.3l-7.41-.69V30.58h144.26v4.16c0,83.57-.01,167.14,.06,250.71,0,2.87-.88,4.53-3.28,6.11-13.78,9.05-27.5,18.2-41.1,27.53-3.05,2.09-6.01,3.04-9.63,2.6-3.54-.42-7.12-.57-11-.85-.59-10.25-3.86-19.29-12.3-27.15,5.3,0,9.47,.02,13.64,0Zm-15.73-11.96v-18.57h13.83v18.57h-13.83Zm-31.76-18.63v18.49h-13.79v-18.49h13.79Zm-45.38-115.94v7.56h-60.54v-7.56h60.54Zm-61.97-53.45h38.31v11.43h-38.31v-11.43Zm-18.32,23.53h80.2v17.99h-4.66c-19.16,0-38.31,0-57.47,0-8.38,0-10.32,1.97-10.33,10.37,0,3.99-.02,7.98,0,11.97,.04,6.66,2.43,9.09,9.19,9.1,18.89,.04,37.78,.01,56.67,.01,2.11,0,4.22,0,6.6,0v16.29c-1.33,0-2.73,0-4.12,0-19.42,0-38.85,0-58.27,0-8.01,0-10.07,2.11-10.08,10.23,0,3.99-.01,7.98,0,11.97,.03,6.82,2.25,9.15,9.05,9.16,19.56,.04,39.11,.02,58.67,.02,1.56,0,3.13,0,4.85,0v16.42h-4.36c-19.56,0-39.11,0-58.67,0-7.31,0-9.52,2.23-9.54,9.52,0,3.58,0,7.16,0,10.82-.56,.1-.93,.26-1.26,.2q-6.47-1.24-6.47-7.94V117.23Zm80.28,77.79v7.44h-60.6v-7.44h60.6Zm-60.5,55.22v-7.48h60.48v7.48h-60.48Zm60.47,12.03v15.78c-15.55-2.02-29.68-7.14-43.81-15.78h43.81Zm205.68,38.41c-8.84,8.08-17.79,16.03-26.69,24.04-14.54,13.08-29.35,25.87-43.51,39.35-10.41,9.9-22.42,14.93-36.51,16.82-36.62,4.93-73.14,10.55-109.74,15.56-4.83,.66-10.33,.39-14.86-1.26-26.96-9.8-53.72-20.13-80.54-30.3-.73-.28-1.42-.68-2.2-1.05v-103.03c.38-.18,.71-.48,1.06-.5,20.32-.91,39.99,2.18,57.69,12.45,19.68,11.41,40.8,16.87,63.21,18.77,14.7,1.25,29.35,3.11,43.98,5.01,13.13,1.71,21.37,10.56,21.83,23.3-5.55-.49-11.05-.92-16.54-1.46-30.31-2.94-60.61-5.9-90.91-8.85-.26-.03-.53-.09-.79-.1-4.2-.25-6.85,1.71-7.09,5.24-.24,3.56,1.95,5.91,6.15,6.33,15.34,1.56,30.69,3.11,46.04,4.59,24.35,2.35,48.71,4.67,73.07,6.92,6.09,.56,12.21,1.03,18.32,.99,2.45-.02,5.22-1.02,7.3-2.4,24.6-16.3,49.09-32.78,73.66-49.13,2.16-1.44,4.65-2.76,7.15-3.25,5.61-1.1,10.78,1.77,13.22,6.72,2.45,4.98,1.25,11.08-3.3,15.24Z"/><path d="M216.06,182.87c-6.65-.07-13.3-.06-19.95,0-6.02,.06-8.72,2.69-8.91,8.76-.13,4.12-.02,8.25-.03,12.37,0,4.12-.1,8.25,.02,12.37,.18,6.09,2.86,8.75,8.86,8.8,6.65,.06,13.3,.06,19.95,0,5.97-.05,8.85-2.78,8.95-8.75,.13-8.24,.12-16.49,0-24.74-.09-6-2.95-8.76-8.89-8.81Zm-3.11,30.34h-13.92v-18.44h13.92v18.44Z"/><path d="M216.64,114.43c-7.04-.2-14.1-.2-21.14,0-5.41,.15-8.02,2.82-8.26,8.2-.19,4.25-.04,8.51-.04,12.77h-.03c0,3.99,0,7.98,0,11.97,0,.27,0,.53,.01,.8,.31,5.91,2.81,8.44,8.69,8.52,6.78,.09,13.57,.09,20.35,0,5.85-.08,8.62-2.7,8.73-8.5,.15-8.38,.14-16.76,0-25.13-.09-5.59-2.82-8.46-8.31-8.62Zm-3.68,30.54h-13.87v-18.55h13.87v18.55Z"/><path d="M195.83,88.38c6.78,.16,13.57,.15,20.35,0,5.94-.12,8.65-2.96,8.8-8.97,.1-3.99,.02-7.98,.02-11.97,0-4.26,.11-8.51-.03-12.77-.18-5.83-2.85-8.49-8.67-8.58-6.78-.11-13.57-.1-20.35,0-5.91,.08-8.61,2.61-8.72,8.47-.16,8.37-.15,16.76,0,25.13,.1,5.84,2.81,8.55,8.61,8.68Zm3.28-30.56h13.83v18.54h-13.83v-18.54Z"/><path d="M308.15,182.89c-7.18-.14-14.36-.14-21.54,0-5.27,.1-7.93,2.96-8.04,8.34-.09,4.25-.02,8.51-.02,12.77,0,4.39-.09,8.78,.03,13.16,.13,5.09,2.87,7.89,7.98,7.98,7.18,.13,14.36,.13,21.54,0,5.11-.09,7.99-2.89,8.06-7.93,.13-8.77,.13-17.55,0-26.33-.07-5.06-2.92-7.89-8.01-7.99Zm-3.88,30.24h-13.91v-18.3h13.91v18.3Z"/><path d="M270.54,190.67c-.1-4.84-3.03-7.67-7.85-7.77-7.31-.15-14.63-.15-21.94,0-4.91,.1-7.62,2.84-7.8,7.74-.16,4.52-.04,9.04-.04,13.56,0,4.39-.13,8.78,.03,13.17,.18,4.91,2.88,7.66,7.77,7.76,7.31,.15,14.63,.14,21.94,0,4.83-.09,7.78-2.89,7.88-7.73,.19-8.91,.18-17.82,0-26.73Zm-11.96,22.58h-13.87v-18.3h13.87v18.3Z"/><path d="M316.19,123.03c-.1-5.53-2.74-8.44-8.27-8.6-7.04-.2-14.1-.2-21.14,0-5.57,.16-8.16,3-8.21,8.62-.07,8.38-.07,16.76,0,25.13,.05,5.69,2.64,8.4,8.22,8.5,7.05,.12,14.1,.12,21.14,0,5.55-.1,8.16-2.86,8.26-8.51,.07-4.12,.01-8.24,.01-12.37s.06-8.51-.01-12.77Zm-11.98,21.81h-13.52v-18.5h13.52v18.5Z"/><path d="M286.2,88.31c7.44,.28,14.9,.28,22.33,0,5.08-.19,7.55-3.16,7.65-8.35,.09-4.25,.02-8.51,.02-12.77,0-4.12,.05-8.25-.01-12.37-.08-5.87-2.68-8.61-8.48-8.71-6.91-.12-13.83-.12-20.74,0-5.67,.1-8.34,2.75-8.4,8.33-.09,8.51-.09,17.02,0,25.53,.05,5.22,2.52,8.14,7.63,8.33Zm4.21-30.43h13.85v18.57h-13.85v-18.57Z"/><path d="M308.25,251.39c-7.31-.14-14.63-.14-21.94,.01-4.93,.1-7.58,2.83-7.72,7.75-.13,4.38-.03,8.78-.03,13.17h-.02c0,3.99,0,7.98,0,11.97,0,.27,0,.53,0,.8,.16,5.43,2.61,8.34,7.9,8.51,7.31,.23,14.63,.24,21.94-.01,5.09-.18,7.72-3.12,7.78-8.24,.1-8.64,.11-17.29,0-25.93-.07-5.15-2.8-7.93-7.91-8.03Zm-4.01,30.28h-13.81v-18.55h13.81v18.55Z"/><path d="M241.11,156.67c7.05,.12,14.1,.11,21.15,0,5.36-.09,8.22-2.81,8.31-8.09,.15-8.64,.14-17.29,0-25.93-.08-5.08-2.79-8.02-7.88-8.19-7.31-.25-14.63-.25-21.94,0-5.17,.18-7.67,2.98-7.82,8.16-.13,4.38-.03,8.78-.03,13.17,0,4.26-.1,8.51,.02,12.77,.16,5.39,2.78,8.03,8.19,8.12Zm3.56-30.31h13.86v18.57h-13.86v-18.57Z"/><path d="M232.91,79.84c.13,5.48,2.58,8.32,7.9,8.5,7.31,.24,14.63,.25,21.94-.01,5.06-.18,7.75-3.12,7.82-8.23,.13-8.64,.14-17.29,0-25.93-.09-5.12-2.88-7.92-7.96-8.02-7.31-.15-14.63-.15-21.94,.02-4.95,.11-7.53,2.79-7.71,7.75-.16,4.38-.03,8.78-.03,13.16h-.02c0,4.26-.08,8.51,.02,12.77Zm11.86-21.95h13.87v18.56h-13.87v-18.56Z"/></svg>