<?xml version="1.0" encoding="UTF-8"?><svg id="a" xmlns="http://www.w3.org/2000/svg" viewBox="0 0 487.03 487.03"><path d="M257.34,487.03c-26.96-7.25-53.93-14.48-80.88-21.77-9.61-2.6-19.19-5.3-28.77-8-7.53-2.12-14.71-1.28-21.6,2.33-2.8,1.47-5.46,3.25-8.36,4.46-5.1,2.14-8.74,4.64-8.27,11.3,.32,4.46-3.26,7.2-7.83,7.11-20.89-.41-41.77-.89-62.65-1.59-5.95-.2-8.61-3.52-8.44-9.76,1.01-37.33,2.09-74.66,3.13-111.99,.22-7.75,.35-15.5,.59-23.25,.22-6.98,3.05-9.7,10.06-9.54,19.46,.44,38.92,.92,58.38,1.45,8.7,.24,11.12,3.01,10.78,11.79-.12,2.97-.02,5.96-.02,9,6.82-2.4,13.5-5.21,20.43-7.12,24.94-6.86,49.45-5.1,72.41,6.78,14.77,7.64,29.87,11.47,46.37,11.38,14.55-.08,29.11,.81,43.66,1.05,19.39,.33,34.35,8.43,44.73,24.87,.33,.53,.73,1.01,1.31,1.81,4.29-2,8.55-3.96,12.8-5.97,17.01-8.03,33.93-16.24,51.03-24.05,17.98-8.22,39.08-2.09,49.95,14.11,4.35,6.48,3.61,10.48-2.85,14.66-46.07,29.81-92.11,59.68-138.29,89.32-10,6.42-21.55,8.85-33.17,10.66-1.54,.24-3.05,.64-4.58,.96h-19.94Zm-146.63-38.18c.62,.06,.98,.2,1.22,.1,1.29-.59,2.6-1.16,3.81-1.89,12.43-7.43,25.49-8.5,39.28-4.43,15.15,4.47,30.36,8.74,45.6,12.88,18.59,5.06,37.03,10.96,55.91,14.51,17.75,3.34,35.76,.82,51.28-8.99,42.76-27.05,85.06-54.83,127.53-82.32,1.23-.8,2.4-1.68,3.93-2.76-8.53-6.64-17.13-8.1-26.39-4.14-5.81,2.48-11.47,5.31-17.18,8.02-15.98,7.56-31.96,15.14-48.1,22.79,.24,2.21,.54,4.23,.67,6.26,.58,8.75-2.36,11.9-11.12,11.7-15.98-.35-31.96-.76-47.93-1.21-14.39-.4-28.79-.78-43.18-1.37-5.94-.24-9.51-4.63-8.28-9.61,1.06-4.31,4.1-6.25,9.88-6.1,22.3,.58,44.61,1.24,66.91,1.8,5.52,.14,11.04,.02,16.56,.02-1.7-14-15.77-26.5-30.96-27.25-9.96-.49-19.93-.64-29.89-.96-11.55-.36-23.11-.45-34.63-1.18-13.23-.84-24.76-6.86-36.55-12.37-28.05-13.12-55.72-11.62-82.72,3.57-2.66,1.5-3.73,3.22-3.8,6.32-.59,24.67-1.36,49.34-2.06,74.02-.02,.88,.14,1.77,.22,2.61Zm-16.69,16.67c1.11-40.23,2.22-80.89,3.36-122.29H50.08c-1.11,40.41-2.23,80.95-3.37,122.29h47.32Z"/><path d="M249.71,338.18c-63.87,0-115.71-51.76-115.7-115.54,0-63.71,51.95-115.56,115.75-115.55,63.88,0,115.69,51.77,115.69,115.58,0,63.78-51.84,115.51-115.74,115.51Zm.17-15.85c55.24-.16,99.76-44.96,99.56-100.19-.21-54.74-44.76-99.07-99.6-99.1-55.22-.03-99.91,44.7-99.81,99.88,.1,54.89,44.99,99.57,99.86,99.41Z"/><path d="M257.63,46.43c0,12.5,.1,24.99-.05,37.49-.08,6.43-5.4,10.24-10.83,7.98-3.91-1.62-4.97-4.91-4.95-8.87,.06-12.65,.02-25.31,.02-37.96,0-11.55-.04-23.1,.02-34.64,.04-6.09,3.18-9.66,8.1-9.53,4.76,.13,7.65,3.57,7.68,9.47,.07,12.02,.02,24.04,.01,36.07Z"/><path d="M301.65,66.38c0-5.69-.12-11.39,.03-17.08,.14-5.32,3.48-8.68,8.13-8.52,4.48,.15,7.55,3.4,7.6,8.56,.11,11.54,.11,23.09,0,34.64-.05,5.11-3.19,8.4-7.64,8.53-4.65,.13-7.95-3.22-8.08-8.56-.15-5.85-.03-11.7-.03-17.56Z"/><path d="M197.81,66.85c0,5.69,.11,11.39-.03,17.08-.13,5.32-3.45,8.7-8.09,8.56-4.46-.13-7.58-3.4-7.63-8.53-.12-11.54-.12-23.09,0-34.64,.06-5.34,3.42-8.69,8.07-8.56,4.48,.13,7.52,3.37,7.65,8.53,.14,5.85,.03,11.7,.03,17.55Z"/><path d="M231.67,196.07c.05,8.98,6.43,16.34,15.4,17.68,3.75,.56,7.6,.64,11.25,1.55,14.14,3.53,24.04,15.49,25.41,30.27,1.26,13.64-6.78,27.91-19.81,33.24-5.34,2.19-8.17,4.33-7.52,10.55,.44,4.27-3.43,7.46-7.52,7.54-4.07,.09-7.4-2.92-7.95-7.27-.16-1.25-.31-2.56-.11-3.78,.58-3.58-1-5.14-4.29-6.55-12.42-5.3-19.14-15.07-20.77-28.36-.75-6.08,2.28-10.37,7.28-10.77,4.8-.38,8.08,3.08,8.65,9.11,.93,9.97,8.39,16.77,18.36,16.74,9.27-.03,17.02-7.23,17.71-16.44,.72-9.72-5.74-18.09-15.68-19.28-7.28-.87-14.44-1.51-20.73-5.76-11.03-7.46-16.5-17.93-15.51-31.09,1.02-13.55,8.19-23.45,20.79-28.77,3.44-1.45,4.66-3.13,4.2-6.58-.16-1.23-.03-2.54,.16-3.78,.6-4.1,3.82-6.94,7.75-6.94,4.09,0,8.11,3.16,7.65,7.38-.69,6.34,2.44,8.26,7.62,10.52,12.18,5.32,18.44,15.41,19.74,28.54,.56,5.69-2.71,9.85-7.58,10.09-4.6,.23-7.83-3.24-8.36-8.94-.94-10.16-8.94-17.53-18.6-17.13-9.91,.4-17.56,8.37-17.51,18.23Z"/></svg>