<?xml version="1.0" encoding="UTF-8"?><svg id="a" xmlns="http://www.w3.org/2000/svg" viewBox="0 0 317.76 383.43"><path d="M243.43,383.43H21.79C4.38,376.69,.07,370.34,.07,351.45c0-78.71,0-157.43,0-236.14,0-13.85-.21-27.7,.08-41.54,.23-11.31,5.88-19.46,16.33-23.74,3.46-1.42,7.5-1.79,11.31-1.92,8.05-.28,16.12-.08,24.53-.08,0-3.8-.18-7.16,.05-10.49,.25-3.71,.4-7.52,1.41-11.07C58.04,11.41,72.46,.59,88.71,.19c8.85-.22,17.72-.08,26.57-.08,54.15,0,108.3,.22,162.45-.11,21.68-.13,40.56,15.73,40.02,39.77-.77,34.16-.19,68.36-.19,102.54,0,51.89-.03,103.79,.03,155.68,.01,10.7-3.58,19.78-11.37,27.08-7.21,6.76-15.91,10.12-25.76,10.39-4.94,.14-9.88,.02-15.2,.02,0,7.97,.16,15.44-.04,22.89-.28,10.93-7.28,20.16-17.59,23.64-1.4,.47-2.8,.94-4.21,1.41ZM24.03,215.35c0,46.29,0,92.58,0,138.87q0,5.24,5.16,5.24c69.01,0,138.02,0,207.03,0q5.11,0,5.13-5.25c0-92.33,0-184.66,0-277q0-5.23-5.13-5.24c-69.01,0-138.02,0-207.03,0q-5.15,0-5.16,5.24c0,46.04,0,92.08,0,138.12ZM76.4,48.03h4.9c52.16,0,104.31,.03,156.47-.03,8.93-.01,16.34,2.99,21.98,9.96,4.37,5.4,5.61,11.71,5.61,18.55-.07,76.73-.04,153.45-.04,230.18v4.82c5.59,0,10.59,.23,15.55-.05,7.46-.43,12.71-5.69,12.71-12.59,.03-87.33,.01-174.66,.03-261.99,0-5.36-2.57-9.17-7.3-11.15-2.66-1.11-5.79-1.58-8.7-1.58-61.77-.09-123.53-.07-185.3-.06-1.25,0-2.5-.04-3.74,.08-6.33,.65-11.69,5.04-12.1,10.37-.34,4.32-.07,8.68-.07,13.5Z"/><path d="M134.87,161.82c-18.47,0-36.93,.01-55.4,0-7.98,0-13.43-4.83-13.49-11.87-.06-7.1,5.36-12.07,13.27-12.07,37.18-.01,74.36-.01,111.55,0,6.34,0,10.79,3.18,12.45,8.73,1.46,4.88-.31,10.42-4.87,13.01-2.36,1.34-5.38,2.08-8.11,2.11-18.46,.18-36.93,.09-55.4,.09Z"/><path d="M135.24,185.78c18.34,0,36.68-.01,55.02,0,7.97,0,13.42,4.84,13.47,11.89,.04,7.07-5.4,12.05-13.3,12.05-37.06,.02-74.11,.02-111.17,0-7.88,0-13.33-5.02-13.27-12.09,.06-7.07,5.47-11.85,13.48-11.86,18.59-.01,37.18,0,55.77,0Z"/><path d="M134.85,233.69c18.47,0,36.93,0,55.4,0,7.98,0,13.43,4.84,13.48,11.88,.05,7.07-5.4,12.06-13.29,12.06-37.06,.02-74.11,.02-111.17,0-7.88,0-13.34-5.01-13.28-12.08,.06-7.07,5.46-11.86,13.47-11.87,18.47-.01,36.93,0,55.4,0Z"/></svg>