<?xml version="1.0" encoding="UTF-8"?><svg id="a" xmlns="http://www.w3.org/2000/svg" viewBox="0 0 333.9 334.08"><path d="M259.59,205.43c-7.78-7.4-17.83-9.17-29.05-5.12-6.66,2.4-11.59,7.36-16.37,12.16-4.34,4.37-8.67,8.75-13.12,13.26l-6.85,6.94-1.33-.74c-39.47-21.94-69.47-51.89-91.71-91.57l-.79-1.41,1.21-1.07c.47-.41,.87-.76,1.23-1.06,.62-.53,1.06-.91,1.45-1.31,2.39-2.44,4.82-4.85,7.24-7.26,5.5-5.48,11.19-11.14,16.39-17.03,10.02-11.35,9.97-27.45-.12-38.29-15.68-16.85-30.01-31.33-43.79-44.25-13.44-12.6-28.6-12.81-42.69-.57-7.18,6.24-13.94,13.27-20.48,20.07-2.18,2.27-4.37,4.54-6.57,6.79C4.24,65.18-.41,78.24,.03,94.88c.36,13.48,3.45,27.53,9.73,44.24,13.64,36.25,35.56,70.32,67,104.14,23.31,25.07,50.3,46.25,80.22,62.95,15.89,8.87,37.17,19.72,60.87,24.93,3.9,.86,7.95,1.49,11.86,2.09,1.79,.28,3.58,.55,5.36,.85h12.09c.12-.04,.24-.08,.36-.12,.55-.18,1.17-.39,1.87-.48,10.92-1.43,19.82-5.39,26.43-11.78,10.11-9.76,20.83-20.39,30.81-31.91,9.38-10.84,9.05-27.49-.77-37.89-14.93-15.83-30.5-31.46-46.28-46.46Zm34.22,76.4c-.85,1.06-1.78,2.11-2.76,3.11-2.49,2.55-5,5.1-7.5,7.64-4.67,4.75-9.5,9.65-14.17,14.54-7.54,7.88-16.85,11.75-28.34,11.75-1.56,0-3.16-.07-4.8-.21-22.13-1.92-41.76-10.43-56.38-17.64-55.32-27.27-100.67-69.14-134.79-124.47-13.91-22.55-22.99-44.13-27.76-65.97-.82-3.76-1.27-7.61-1.7-11.33-.2-1.71-.4-3.42-.63-5.12l-.02-.24c-.2-12.56,4.09-22.83,13.11-31.4,4.57-4.34,9.09-8.91,13.46-13.33,2.59-2.62,5.19-5.25,7.81-7.84,8.97-8.89,17.3-8.88,26.2,0,11.08,11.06,22.13,22.15,33.19,33.24l4.14,4.16c1.25,1.26,2.21,2.31,3.03,3.32,5.72,7.05,5.58,14.12-.41,20.45-7.58,8.02-15.62,15.82-23.39,23.37l-.26,.26c-7.56,7.34-8.25,11.01-3.89,20.64,9.01,19.86,22.47,35.87,34.46,48.91,16.82,18.3,33.98,32.55,52.45,43.56,4.41,2.62,9.05,4.97,13.55,7.24,5.82,2.93,10.99,2.06,15.8-2.67,5.08-4.99,10.19-10.12,15.14-15.08,2.51-2.51,5.02-5.03,7.53-7.53l.29-.29c1-1,2.04-2.04,3.17-3,7.02-5.94,14.77-5.71,21.27,.62,6.64,6.46,13.27,13.13,19.69,19.59l4.89,4.91c1.41,1.42,2.83,2.83,4.25,4.24,4.3,4.27,8.75,8.69,12.93,13.25,6.04,6.58,6.2,14.16,.43,21.35Z"/><path d="M333.36,145.95c-4.08-21.87-11.7-42.21-22.64-60.43-12.96-21.59-29.98-40.03-50.58-54.78C238.66,15.35,214.29,5.09,187.72,.22c-.82-.15-1.62-.22-2.38-.22-4.06,0-7.03,2.12-7.81,5.78-.93,4.33,1.76,7.91,7.01,9.35,2.73,.75,5.48,1.46,8.22,2.18,8.34,2.17,16.96,4.41,25.11,7.62,28.92,11.37,53.28,30.59,72.42,57.13,13.99,19.4,23.38,41.55,27.9,65.84,1.02,5.48,3.39,7.95,7.91,8.24,1.29,.08,6.81-.15,7.78-6.83,.1-.71-.4-2.69-.52-3.35Z"/><path d="M247.41,124.19c5.48,9.72,8.23,20.3,10,28.44,.5,2.29,1.76,4.17,3.56,5.31,1.65,1.05,3.63,1.39,5.57,.94,4.32-.99,6.6-4.96,5.67-9.89-4.1-21.75-13.93-40.73-29.22-56.4-16.19-16.59-36.09-27.12-59.15-31.29-2.43-.44-4.73,.13-6.48,1.6-1.71,1.44-2.68,3.62-2.67,5.99,.03,5.06,3.9,6.9,7.15,7.55,28.91,5.8,50.96,21.86,65.56,47.74Z"/></svg>