<?xml version="1.0" encoding="UTF-8"?><svg id="a" xmlns="http://www.w3.org/2000/svg" viewBox="0 0 897.49 383.25"><g><path d="M456.33,338.2c-3.12,7.6-5.16,15.91-9.57,22.67-10.17,15.56-25.37,22.47-43.98,22.38-32.07-.15-64.15-.04-96.22-.04-84.04,0-168.09-.05-252.13,.03-20.53,.02-36.4-8.3-47.38-25.63C1.82,349.37,0,340.13,.01,330.43c.05-43.66,.02-87.31,.02-130.97,0-27.62-.1-55.24,.03-82.86,.11-24.44,16.82-45.37,40.33-50.52,4.45-.97,9.13-1.25,13.7-1.28,21.08-.13,42.17-.06,63.26-.06,1.62,0,3.24,0,4.39,0,1.74-6.21,2.56-12.37,5.12-17.69,7.48-15.57,20.57-22.91,37.62-22.96,42.47-.12,84.94-.25,127.4,.05,20.46,.14,34.82,11.45,39.93,30.33,.84,3.12,1.05,6.42,1.65,10.27,1.52,0,3.08,0,4.65,0,21.53,0,43.06-.03,64.59,0,27.56,.06,47.29,16.23,52.95,43.31,.08,.39,.44,.73,.68,1.09v229.04Zm-228.13,22.08c57.61,0,115.23,.02,172.84-.05,3.83,0,7.8-.18,11.45-1.2,13.86-3.9,21.24-14.55,21.28-30.7,.16-70.09,.13-140.18-.06-210.26-.01-4.76-.97-9.91-2.97-14.18-5.24-11.21-14.81-16.07-27-16.07-26.43,0-52.86,0-79.3,0-9.84,0-14.25-4.49-14.27-14.44,0-2.23,0-4.45,0-6.68-.02-14.12-5.89-19.99-20.03-20-41.13,0-82.26,0-123.4,0-1.63,0-3.27-.02-4.9,.11-8.13,.64-14.13,6.35-14.88,14.5-.38,4.13-.26,8.3-.32,12.46-.13,9.6-4.62,14.05-14.26,14.05-26.58,.01-53.16-.07-79.74,.03-17.42,.07-29.48,11.69-29.51,28.85-.12,71.57-.1,143.15,.07,214.72,.01,4.31,1,8.97,2.85,12.85,5.52,11.59,15.53,16.05,27.97,16.04,58.06-.02,116.12-.01,174.18-.01Z"/><path d="M334.92,224.42c-.67,59.12-48.43,106.69-106.9,106.28-59.97-.42-106.63-48.12-106.44-107.05,.2-60.65,48.86-106.64,107.19-106.2,60.06,.45,105.66,48.08,106.15,106.97Zm-23.55,.57c.17-46.5-36.72-83.68-83.11-83.76-46.07-.09-83.09,36.9-83.25,83.18-.16,45.97,37.1,83.33,83.15,83.37,45.89,.04,83.05-36.93,83.22-82.79Z"/><path d="M382.57,159.24c-11.74,0-21.31-9.59-21.2-21.24,.11-11.54,9.48-20.89,21.02-20.98,11.81-.09,21.34,9.28,21.38,21.03,.04,11.76-9.4,21.2-21.21,21.19Z"/></g><g><path d="M714.1,0c3.38,.7,6.78,1.35,10.15,2.12,37.19,8.45,64.15,40.72,64.75,78.79,.56,35.29,.64,70.61,0,105.9-.88,48.74-42.83,85.56-91.38,81.07-40.76-3.77-74-38.32-74.84-79.2-.74-36.41-.74-72.86,0-109.27,.82-39.88,32.77-73.94,72.39-78.71,.83-.1,1.63-.46,2.44-.7h16.47Zm-67.61,134.36h-.01c0,16.21-.06,32.43,.04,48.64,.03,4.22,.28,8.49,.97,12.65,4.65,27.84,29.77,48.61,58.51,48.56,28.72-.06,53.65-20.93,58.29-48.84,.39-2.33,.79-4.7,.79-7.05,.05-36.17,.59-72.35-.14-108.5-.61-30.24-26.96-55.23-57.17-55.84-33.87-.68-60.8,25.21-61.24,59.12-.22,17.08-.04,34.17-.04,51.26Z"/><path d="M897.49,136.23c-2.32,4.98-5.49,8.87-11.57,9.04-6.61,.18-12.22-4.75-12.32-11.37-.18-12.44-.15-24.89,0-37.33,.06-5.29,4.01-9.84,9-11.07,5.25-1.29,10.64,1.09,13.34,5.89,.54,.96,1.03,1.95,1.54,2.92v41.92Z"/><path d="M718,359.3c2.12,0,3.86,0,5.59,0,23.7,0,47.4-.02,71.1,.01,7.58,0,12.99,5.08,12.96,12.01-.03,6.93-5.43,11.92-13.06,11.92-59.13,.02-118.25,.02-177.38,0-7.66,0-13.07-4.93-13.14-11.85-.07-7.1,5.35-12.09,13.24-12.09,25.32-.02,50.64,0,76.27,0v-35.06c-6.78-1.27-13.66-2.34-20.44-3.87-52.65-11.89-96.03-58.13-104.74-111.51-1.03-6.31,3.14-12.34,9.42-13.62,6.45-1.32,12.49,2.61,14.14,9.16,1.52,6.03,2.54,12.26,4.71,18.05,16.47,43.85,47.85,70.3,94.24,76.79,62.02,8.69,117.51-33.61,128.67-93.63,1.23-6.63,6.02-10.78,11.98-10.71,5.77,.06,10.87,4.26,11.66,10.17,.33,2.51-.18,5.21-.72,7.74-12.46,58.6-59.18,102.11-118.5,110.42-1.96,.27-3.93,.46-6.01,.7v35.38Z"/><path d="M592.16,115.26c0,11.22,.03,22.44-.01,33.65-.03,7.63-5,12.88-12.02,12.84-6.81-.04-11.88-5.31-11.9-12.67-.06-22.56-.06-45.12,0-67.68,.02-7.42,5.02-12.6,11.9-12.64,7.04-.04,11.99,5.19,12.02,12.83,.04,11.22,.01,22.44,.01,33.65Z"/><path d="M819.56,115.07c0-11.09-.02-22.19,0-33.28,.02-7.78,4.78-12.98,11.82-13.01,7.05-.03,12.09,5.2,12.1,12.83,.05,22.56,.06,45.12,0,67.68-.02,6.54-4.36,11.62-10.22,12.39-5.89,.77-11.38-2.57-13.09-8.18-.5-1.63-.58-3.43-.59-5.15-.05-11.09-.03-22.19-.02-33.28Z"/><path d="M538.19,115.39c0,5.85,.06,11.71-.02,17.56-.09,7.09-5.11,12.27-11.81,12.33-6.87,.07-12.06-5.17-12.11-12.41-.07-11.71-.06-23.42,0-35.13,.04-7.33,5.08-12.51,11.99-12.5,6.86,.01,11.87,5.24,11.94,12.58,.06,5.85,.01,11.71,.01,17.56Z"/></g></svg>