<?xml version="1.0" encoding="UTF-8"?><svg id="a" xmlns="http://www.w3.org/2000/svg" viewBox="0 0 412.78 412.96"><path d="M412.51,192.83c-.17-.94-.35-1.88-.48-2.83-.41-2.81-.77-5.69-1.11-8.48-.74-5.94-1.51-12.08-2.8-18.05-10.84-49.85-36.61-90.49-76.61-120.8C281.41,4.71,224.73-8.01,163.04,4.86,114.28,15.02,73.83,40.63,42.82,80.95,9.9,123.75-4.15,172.94,1.06,227.16c4.18,43.52,21.12,82.35,50.36,115.43,31.96,36.16,72.12,58.75,119.38,67.16,5.31,.94,10.73,1.61,15.98,2.26,2.45,.3,4.9,.6,7.35,.94l24.36,.02,.13-.02c2.44-.33,4.88-.63,7.33-.93,5.25-.65,10.67-1.32,15.98-2.26,46.52-8.23,86.23-30.3,118.02-65.59,29.41-32.64,46.85-71.95,51.84-116.83,.22-1.96,.44-3.93,.67-5.89l.31-2.73v-24.18l-.02-.34c-.08-.45-.16-.9-.24-1.35Zm-75,144.51c-35.09,35.13-81.63,54.53-131.05,54.62-49.29,.09-95.78-19.19-130.91-54.29-35.13-35.1-54.52-81.65-54.61-131.07-.09-49.3,19.19-95.8,54.28-130.93C110.31,40.54,156.85,21.14,206.27,21.05h.34c49.16,0,95.52,19.27,130.57,54.29,35.13,35.1,54.52,81.65,54.61,131.07,.09,49.3-19.19,95.8-54.28,130.93Z"/><path d="M286.64,196.32c-14.74-9.48-29.49-18.96-44.24-28.44-23.61-15.18-47.23-30.36-70.83-45.56-3.59-2.31-7.92-4.31-12.82-1.6-4.86,2.68-5.52,7.2-5.51,11.68,.05,18.44,.04,37.19,.04,55.32v34.99c-.02,19.08-.03,38.8,.08,58.21,.02,3.2,.85,6.32,2.29,8.54,1.79,2.77,4.37,4.16,7.43,4.16,2.53,0,5.39-.96,8.39-2.89,38.37-24.65,76.73-49.31,115.09-73.98,5.85-3.76,7.08-7.66,7.08-10.27,0-2.59-1.21-6.46-6.99-10.17Zm-112.21,67.52v-114.65l89.15,57.32-89.15,57.34Z"/></svg>