<?xml version="1.0" encoding="UTF-8"?><svg id="a" xmlns="http://www.w3.org/2000/svg" viewBox="0 0 369.66 369.73"><path d="M369.65,146.89V82.38c0-14.16,.01-28.32,0-42.49-.02-20.76-11.76-35.12-32.21-39.41-.3-.06-.59-.17-.88-.32l-.32-.17H33.05l-.24,.08c-1.33,.46-2.67,.87-3.98,1.28-3.31,1.03-6.44,2-9.24,3.52C9.21,10.53,2.82,19.46,.61,31.44c-.11,.57-.3,1.04-.47,1.43l-.13,.29v224.35l.28,1.31c.23,.93,.46,1.85,.68,2.78,4.38,18.15,19.43,29.46,39.29,29.5,33.51,.07,61.17,.05,87.09-.06,3.75,0,6.05,1.44,7.72,4.83,7.76,15.75,18.02,36.47,28.58,57.12,2.16,4.23,4.59,7.74,7.22,10.41,4.07,4.15,8.9,6.34,13.98,6.34h.12c5.14-.03,10.01-2.3,14.08-6.56,2.54-2.66,4.89-6.08,6.98-10.18,9.85-19.31,19.64-39.03,28.75-57.46,1.53-3.1,3.72-4.48,7.1-4.48,.05,0,.1,0,.14,0,18.07,.06,36.79,.06,53.3,.06,11.25,0,22.5,0,33.83,.01,9.95,0,17.58-2.15,24.04-6.78,11.1-7.96,16.5-18.65,16.49-32.69-.02-34.92-.02-69.85-.01-104.77Zm-16.96,105.44c0,12.05-8.13,20.78-20.22,21.73-1.25,.1-2.49,.1-3.68,.1h-.9c-7.96,0-15.92,0-23.91,.02-22.62,.03-46.01,.05-69.01-.12h-.22c-5.99,0-9.33,2.07-11.91,7.38-8.16,16.79-16.69,33.73-24.95,50.15-2.18,4.32-4.35,8.65-6.52,12.97-.79,1.57-1.68,3.02-2.72,4.7-.52,.84-1.08,1.75-1.68,2.77l-2.16,3.63-2.14-3.64c-.57-.96-1.09-1.83-1.58-2.63l-.1-.16c-1.03-1.69-1.92-3.15-2.71-4.71l-5.43-10.81c-8.65-17.22-17.59-35.03-26.21-52.62-2.47-5.03-5.61-7-11.24-7-28.06,.16-57.36,.12-83.21,.08l-12.29-.02c-11.91-.01-20.33-6.37-22.52-16.99-.36-1.75-.41-3.55-.41-5.23-.02-70.97-.02-141.94,0-212.9,0-12.99,9.02-22.06,21.92-22.06,97.31-.02,194.62-.02,291.92,0,12.88,0,21.88,8.94,21.88,21.72,.03,68.27,.03,138.15,0,213.64Z"/><path d="M216.79,96.2c.02-5.6,.03-11.39-.04-17.07-.21-17.91-14.18-32.02-31.79-32.14h-.23c-17.72,0-31.7,14.15-31.83,32.21-.12,17.2-.12,34.17,0,50.43,.14,17.93,14.1,32.04,31.79,32.12h.14c17.69,0,31.71-14.15,31.91-32.21,.07-5.77,.05-11.64,.03-17.41,0-2.6-.02-5.2-.02-7.79s0-5.24,.02-7.87v-.26Zm-46.94-16.31c.02-9.01,6.41-15.87,14.87-15.94,.04,0,.09,0,.13,0,3.91,0,7.55,1.46,10.25,4.13,3.03,2.99,4.71,7.25,4.73,11.99,.03,5.67,.02,11.35,.01,17.02v14.83c0,5.59,.01,11.18-.01,16.77-.02,4.75-1.7,9-4.72,11.98-2.7,2.67-6.34,4.13-10.26,4.13h-.13c-8.46-.07-14.85-6.92-14.87-15.93-.04-16.03-.04-32.51,0-48.97Z"/><path d="M184.94,191.78h-.11c-8.5,0-16.5,3.33-22.54,9.37-6.09,6.09-9.42,14.18-9.39,22.77,.07,17.51,14.39,31.76,31.99,31.76,17.56-.03,31.85-14.33,31.87-31.88,.02-17.6-14.26-31.96-31.82-32.02Zm-.31,46.95c-8.37-.09-14.86-6.74-14.78-15.15,.04-4,1.65-7.76,4.55-10.58,2.83-2.76,6.56-4.27,10.51-4.27,.04,0,.09,0,.13,0,8.23,.12,14.86,6.96,14.77,15.24-.04,4.04-1.63,7.78-4.48,10.54-2.8,2.71-6.54,4.21-10.53,4.21v1.5l-.17-1.5Z"/></svg>