<?xml version="1.0" encoding="UTF-8"?><svg id="a" xmlns="http://www.w3.org/2000/svg" viewBox="0 0 338.22 237.42"><path d="M250.31,145.19c1.55,0,2.89,0,4.23,0,6.99,0,13.97,.09,20.96-.06,3.95-.08,6.29-2.56,6.19-6.03-.1-3.28-2.46-5.59-6.2-5.62-10.23-.08-20.46-.09-30.69,0-4.06,.04-6.18,2.23-6.19,6.37-.06,17.83-.06,35.67,0,53.5,.02,3.92,2.13,6.03,6.04,6.07,10.35,.09,20.71,.09,31.06,0,3.73-.04,6.01-2.42,5.98-5.77-.03-3.32-2.34-5.62-6.09-5.68-7.11-.1-14.22-.03-21.33-.06-1.32,0-2.64-.11-3.91-.17v-15.41c8.25,0,16.22,.02,24.2,0,4.55-.02,7.13-2.17,7.12-5.82-.01-3.67-2.5-5.76-7.17-5.8-6.36-.07-12.72,0-19.09-.03-1.69,0-3.37-.15-5.12-.24v-15.24Zm-169.64,30.04c-.94-2.65-1.57-4.33-2.14-6.03-3.52-10.37-6.97-20.75-10.55-31.1-1.31-3.8-4.29-5.38-7.49-4.27-3.29,1.14-4.61,4.05-3.53,7.92,.37,1.32,.89,2.59,1.33,3.89,5.5,16.26,11.01,32.52,16.48,48.79,.95,2.83,2.48,4.91,5.73,4.98,2.83,.07,4.76-1.3,5.66-3.97,6.13-18.02,12.28-36.03,18.3-54.08,1.24-3.71-.8-7.01-4.33-7.77-2.87-.61-5.55,1.06-6.75,4.5-3.02,8.69-5.93,17.43-8.9,26.14-1.15,3.37-2.33,6.72-3.81,10.99Zm124.32-29.52c.65-.26,.87-.43,1.09-.43,3.36-.04,6.73-.04,10.09-.1,4.56-.09,7.08-2.24,7.04-5.94-.04-3.66-2.58-5.76-7.19-5.78-11.22-.03-22.44-.03-33.67,0-4.88,.01-7.42,2.13-7.35,5.99,.07,3.69,2.54,5.67,7.23,5.73,3.56,.04,7.13,0,10.99,0,0,1.88,0,3.23,0,4.58,0,13.72,0,27.44,0,41.15,0,1.24-.05,2.52,.2,3.72,.66,3.06,2.57,4.8,5.79,4.75,3.24-.05,5.02-1.95,5.62-4.97,.24-1.2,.12-2.48,.13-3.73,0-14.95,0-29.91,0-44.98Z"/><path d="M250.31,145.19v15.24c1.75,.08,3.44,.23,5.12,.24,6.36,.03,12.72-.04,19.09,.03,4.67,.05,7.15,2.13,7.17,5.8,.01,3.66-2.57,5.81-7.12,5.82-7.97,.03-15.95,0-24.2,0v15.41c1.27,.06,2.59,.17,3.91,.17,7.11,.02,14.22-.05,21.33,.06,3.75,.06,6.06,2.36,6.09,5.68,.03,3.35-2.25,5.74-5.98,5.77-10.35,.1-20.71,.1-31.06,0-3.92-.04-6.03-2.15-6.04-6.07-.07-17.83-.07-35.67,0-53.5,.01-4.14,2.13-6.33,6.19-6.37,10.23-.1,20.46-.09,30.69,0,3.74,.03,6.11,2.33,6.2,5.62,.1,3.47-2.23,5.95-6.19,6.03-6.98,.15-13.97,.05-20.96,.06-1.34,0-2.68,0-4.23,0Z"/><path d="M165.01,166.38c-.36,4.95-.15,10.03-1.2,14.84-2.55,11.68-13.31,19.02-25.68,18.12-11.01-.79-20.67-10.01-21.5-21.32-.56-7.56-.59-15.22-.03-22.77,.96-12.83,12.25-22.36,24.98-21.76,12.63,.59,22.73,10.88,23.06,23.53,.08,3.11,.01,6.23,.01,9.35l.36,.02Zm-37.06-.11c0,3.12-.1,6.24,.02,9.35,.25,6.63,5.28,11.81,11.81,12.29,6.35,.46,12.49-4.25,12.99-10.86,.52-6.94,.53-13.97,.03-20.91-.5-6.87-6.35-11.27-13.26-10.87-6.31,.36-11.29,5.47-11.57,12.02-.13,2.99-.02,5.99-.02,8.98Z"/><path d="M80.67,175.23c1.48-4.27,2.66-7.63,3.81-10.99,2.97-8.71,5.88-17.45,8.9-26.14,1.2-3.44,3.88-5.12,6.75-4.5,3.52,.76,5.57,4.05,4.33,7.77-6.02,18.05-12.18,36.06-18.3,54.08-.91,2.67-2.83,4.04-5.66,3.97-3.26-.08-4.78-2.15-5.73-4.98-5.47-16.27-10.98-32.53-16.48-48.79-.44-1.3-.96-2.57-1.33-3.89-1.08-3.87,.24-6.78,3.53-7.92,3.2-1.11,6.18,.47,7.49,4.27,3.58,10.34,7.04,20.73,10.55,31.1,.58,1.7,1.2,3.38,2.14,6.03Z"/><path d="M204.99,145.71c0,15.07,0,30.02,0,44.98,0,1.25,.11,2.53-.13,3.73-.6,3.02-2.39,4.92-5.62,4.97-3.22,.05-5.13-1.69-5.79-4.75-.26-1.2-.2-2.48-.2-3.72-.01-13.72,0-27.44,0-41.15,0-1.35,0-2.7,0-4.58-3.86,0-7.42,.03-10.99,0-4.69-.05-7.16-2.04-7.23-5.73-.07-3.86,2.47-5.98,7.35-5.99,11.22-.03,22.44-.03,33.67,0,4.6,.01,7.15,2.12,7.19,5.78,.04,3.7-2.48,5.85-7.04,5.94-3.36,.06-6.73,.06-10.09,.1-.22,0-.44,.17-1.09,.43Z"/><path d="M229.19,53.67c0,2.99-1.54,4.98-4.49,5.59-1.33,.27-2.74,.18-4.11,.18-17.22,.01-34.43,.01-51.65,.01s-34.19,0-51.29-.01c-1.37,0-2.77,.09-4.1-.17-2.96-.6-4.51-2.58-4.53-5.57-.01-3,1.58-4.95,4.5-5.6,1.19-.27,2.48-.16,3.73-.16,34.56-.01,69.12-.01,103.69,0,1.24,0,2.53-.11,3.73,.15,2.92,.64,4.52,2.58,4.52,5.58Z"/><path d="M338.19,102.47c0-1.64-.59-3.46-1.45-4.87-18.7-30.94-37.51-61.82-56.2-92.77C278.51,1.48,276.07-.03,272.07,.01c-10.98,.1-21.96,.1-32.95,.09V0H105.62V.1c-14.09,.01-28.18,.02-42.26-.1-4.44-.04-7.06,1.55-9.25,5.39C36.63,36.17,18.96,66.85,1.41,97.6c-.82,1.43-1.39,3.25-1.39,4.88-.03,23.42-.03,46.85-.01,70.27,0,18.51,.02,37.01,.03,55.52,0,7.63,1.53,9.15,9.23,9.15H328.95c7.69,0,9.22-1.53,9.23-9.16,.01-18.5,.02-37.01,.02-55.51,.02-23.43,.02-46.85-.01-70.28ZM34,64.15c9.4-16.45,18.85-32.87,28.17-49.37,1.25-2.22,2.65-3.09,5.26-3.08,26.45,.1,52.9,.02,79.35,.14,.07,0,.14,0,.21,0,0,0,65.62-.14,66.16-.14,18.34,.09,36.69,0,55.03,.15,1.41,.01,3.42,.99,4.13,2.15,16.09,26.26,32.04,52.6,48,78.94,.36,.59,.58,1.27,1.01,2.24H16.25c6.13-10.72,11.94-20.88,17.75-31.04ZM326.11,225.43H12.04V107.5H326.11v117.93Z"/><path d="M229.19,53.67c0,2.99-1.54,4.98-4.49,5.59-1.33,.27-2.74,.18-4.11,.18-17.22,.01-34.43,.01-51.65,.01s-34.19,0-51.29-.01c-1.37,0-2.77,.09-4.1-.17-2.96-.6-4.51-2.58-4.53-5.57-.01-3,1.58-4.95,4.5-5.6,1.19-.27,2.48-.16,3.73-.16,34.56-.01,69.12-.01,103.69,0,1.24,0,2.53-.11,3.73,.15,2.92,.64,4.52,2.58,4.52,5.58Z"/></svg>