<?xml version="1.0" encoding="UTF-8"?><svg id="a" xmlns="http://www.w3.org/2000/svg" viewBox="0 0 338.22 372.77"><path d="M224.7,194.68c-1.33,.27-2.74,.18-4.11,.18-17.22,.01-34.43,.01-51.65,.01s-34.19,0-51.29-.01c-1.37,0-2.77,.09-4.1-.17-2.96-.6-4.51-2.58-4.53-5.57-.01-3,1.58-4.95,4.5-5.6,1.19-.27,2.48-.16,3.73-.16,34.56-.01,69.12-.01,103.69,0,1.24,0,2.53-.11,3.73,.15,2.92,.64,4.52,2.58,4.52,5.58s-1.54,4.98-4.49,5.59Z"/><path d="M129.32,134.68c-6.96-4.13-13.92-8.26-20.88-12.41-4.8-2.86-5.54-5.42-2.74-10.15,21.35-36.04,42.71-72.07,64.1-108.09,2.67-4.5,5.33-5.13,9.96-2.4,15.35,9.06,30.69,18.14,45.98,27.3,2.07,1.24,3.83,1.56,6.24,.86,11.04-3.23,22.28-6.38,33.83-4.28,8.4,1.53,16.65,4.18,24.76,6.93,13.12,4.45,26.26,7.78,40.3,5.71,4.81-.71,7.28,1.75,7.3,6.66,.06,16.35,.06,32.7,0,49.04-.02,4.52-1.99,6.65-6.6,6.88-5.6,.28-10.34,2.36-14.72,5.71-7.42,5.67-15.45,9.98-24.89,11.33-6.68,.95-12.94-.56-19.01-2.85-6.52-2.46-12.74-5.74-19.3-8.07-4.88-1.73-10.07-2.6-15.17-3.62-.9-.18-2.52,.51-3,1.3-6.07,10-12,20.08-18.39,30.88,1.89,0,3.17,0,4.45,0,16.85,0,33.69,.09,50.53-.07,4-.04,6.44,1.47,8.47,4.82,18.69,30.95,37.5,61.83,56.21,92.77,.85,1.41,1.45,3.24,1.45,4.87,.05,41.93,.01,83.86-.01,125.79,0,7.63-1.54,9.16-9.22,9.16-106.56,0-213.12,0-319.68,0-7.7,0-9.23-1.51-9.24-9.14-.03-41.93-.07-83.86-.02-125.79,0-1.64,.58-3.45,1.4-4.89,17.54-30.75,35.21-61.43,52.7-92.21,2.18-3.84,4.8-5.43,9.25-5.39,20.71,.18,41.43,.08,62.14,.08h3.65l.16-.75ZM12.04,242.85v117.93H326.11v-117.93H12.04Zm4.21-12.31H321.32c-.43-.97-.65-1.65-1.01-2.25-15.96-26.33-31.91-52.68-48-78.94-.71-1.16-2.72-2.14-4.14-2.15-18.34-.14-36.68-.05-55.03-.14-2.33-.01-3.57,.86-4.68,2.81-3.19,5.64-6.56,11.18-9.88,16.75-3.12,5.22-5.5,5.83-10.7,2.76-11.48-6.79-22.91-13.67-34.46-20.33-1.94-1.12-4.41-1.85-6.64-1.86-26.45-.13-52.91-.04-79.36-.14-2.6,0-4,.86-5.26,3.08-9.32,16.5-18.76,32.92-28.17,49.37-5.81,10.16-11.62,20.31-17.75,31.04ZM223.33,102.04c-6.81-1.93-13.22-3.37-19.34-5.6-6.21-2.26-10.38-6.93-11.61-13.57-2.13-11.51,5.48-20.66,17.59-20.69,9.2-.02,18.43,.58,27.61,1.32,8.34,.67,8.75,.7,12.18-6.11,.04-.09,0-.23-.03-.74-23.87-14.16-47.92-28.43-72.21-42.83-19.96,33.66-39.7,66.96-59.61,100.52,24.35,14.44,48.4,28.7,72.61,43.05,11.08-18.69,21.93-37,32.81-55.35Zm36.01-37.76l.48,1.41c7.25-.9,14.56-1.42,21.71-2.81,6.04-1.18,9.2-.63,10.23,3.28,.98,3.72-1.24,6.41-6.89,7.99-13.11,3.66-26.47,2.4-39.78,1.74-11.57-.57-23.13-1.29-34.7-1.8-2.83-.13-5.54,.51-6.27,3.99-.7,3.34,.96,5.52,3.61,7.08,1.27,.74,2.7,1.36,4.14,1.64,6.95,1.33,13.89,2.77,20.89,3.7,10.77,1.43,21.46,2.89,31.27,8.08,3.84,2.03,8.01,3.43,12.01,5.17,10.17,4.43,19.75,3.03,28.75-3.05,6.78-4.58,13.13-9.87,21.33-11.09V50.26c-12.07,.79-23.36-1.46-34.45-5.17-7.56-2.52-15.11-5.07-22.77-7.26-8.48-2.43-16.88-1.11-25.97,1.2,5.91,3.51,11.16,6.59,16.38,9.72,5.16,3.1,5.8,5.6,2.81,10.73-.93,1.59-1.84,3.2-2.76,4.8Z"/><g><path d="M174.07,94.73c.04,.09,.07,.18,.1,.27v-.17l-.1-.1Zm.08,27.8v-.62l-.06,.62h.06Z"/><path d="M201.12,76.66c-10.34-14.14-29.78-17.55-44.27-7.75-7.05,4.77-11.95,12.42-13.44,20.99-1.49,8.54,.52,17.37,5.51,24.21,.39,.52,.77,1.06,1.15,1.59l.48,.69,3.18,3.22,.37,.31c.53,.35,1.05,.72,1.57,1.09,1.2,.84,2.44,1.71,3.79,2.47,4.84,2.73,10.22,4.06,15.57,4.06,7.33,0,14.62-2.51,20.42-7.39,.07-.05,.15-.08,.22-.12,.13-.07,.25-.14,.37-.22l.25-.15,2.8-2.79,.28-.35c.31-.44,.61-.87,.92-1.3,.68-.96,1.38-1.95,2.04-2.98,6.9-10.85,6.41-25.15-1.21-35.58Zm-21.96,41.37v-11.73l8.4,8.39c-2.59,1.69-5.4,2.8-8.4,3.34Zm-9.8-1.3v.94c-7.06-1.67-13.57-7.52-16.08-14.75-2.59-7.5-.83-15.28,2.48-20.1l1.02,1.02c4.19,4.19,8.38,8.38,12.56,12.59,.03,6.76,.03,13.53,.02,20.3Zm4.73,5.8l.07-.62v.62h-.07Zm.08-27.53c-.03-.09-.06-.18-.1-.27l.1,.1v.17Zm22.71-6.58c2.26,6.83,1.43,13.23-2.55,19.49l-31.82-31.81c4.93-3.22,10.29-4.37,15.97-3.4,9.29,1.57,15.48,6.86,18.4,15.72Z"/></g><path d="M250.31,280.6c1.55,0,2.89,0,4.23,0,6.99,0,13.97,.09,20.96-.06,3.95-.08,6.29-2.56,6.19-6.03-.1-3.28-2.46-5.59-6.2-5.62-10.23-.08-20.46-.09-30.69,0-4.06,.04-6.18,2.23-6.19,6.37-.06,17.83-.06,35.67,0,53.5,.02,3.92,2.13,6.03,6.04,6.07,10.35,.09,20.71,.09,31.06,0,3.73-.04,6.01-2.42,5.98-5.77-.03-3.32-2.34-5.62-6.09-5.68-7.11-.1-14.22-.03-21.33-.06-1.32,0-2.64-.11-3.91-.17v-15.41c8.25,0,16.22,.02,24.2,0,4.55-.02,7.13-2.17,7.12-5.82-.01-3.67-2.5-5.76-7.17-5.8-6.36-.07-12.72,0-19.09-.03-1.69,0-3.37-.15-5.12-.24v-15.24Zm-169.64,30.04c-.94-2.65-1.57-4.33-2.14-6.03-3.52-10.37-6.97-20.75-10.55-31.1-1.31-3.8-4.29-5.38-7.49-4.27-3.29,1.14-4.61,4.05-3.53,7.92,.37,1.32,.89,2.59,1.33,3.89,5.5,16.26,11.01,32.52,16.48,48.79,.95,2.83,2.48,4.91,5.73,4.98,2.83,.07,4.76-1.3,5.66-3.97,6.13-18.02,12.28-36.03,18.3-54.08,1.24-3.71-.8-7.01-4.33-7.77-2.87-.61-5.55,1.06-6.75,4.5-3.02,8.69-5.93,17.43-8.9,26.14-1.15,3.37-2.33,6.72-3.81,10.99Zm124.32-29.52c.65-.26,.87-.43,1.09-.43,3.36-.04,6.73-.04,10.09-.1,4.56-.09,7.08-2.24,7.04-5.94-.04-3.66-2.58-5.76-7.19-5.78-11.22-.03-22.44-.03-33.67,0-4.88,.01-7.42,2.13-7.35,5.99,.07,3.69,2.54,5.67,7.23,5.73,3.56,.04,7.13,0,10.99,0,0,1.88,0,3.23,0,4.58,0,13.72,0,27.44,0,41.15,0,1.24-.05,2.52,.2,3.72,.66,3.06,2.57,4.8,5.79,4.75,3.24-.05,5.02-1.95,5.62-4.97,.24-1.2,.12-2.48,.13-3.73,0-14.95,0-29.91,0-44.98Z"/><path d="M250.31,280.6v15.24c1.75,.08,3.44,.23,5.12,.24,6.36,.03,12.72-.04,19.09,.03,4.67,.05,7.15,2.13,7.17,5.8,.01,3.66-2.57,5.81-7.12,5.82-7.97,.03-15.95,0-24.2,0v15.41c1.27,.06,2.59,.17,3.91,.17,7.11,.02,14.22-.05,21.33,.06,3.75,.06,6.06,2.36,6.09,5.68,.03,3.35-2.25,5.74-5.98,5.77-10.35,.1-20.71,.1-31.06,0-3.92-.04-6.03-2.15-6.04-6.07-.07-17.83-.07-35.67,0-53.5,.01-4.14,2.13-6.33,6.19-6.37,10.23-.1,20.46-.09,30.69,0,3.74,.03,6.11,2.33,6.2,5.62,.1,3.47-2.23,5.95-6.19,6.03-6.98,.15-13.97,.05-20.96,.06-1.34,0-2.68,0-4.23,0Z"/><path d="M165.01,301.8c-.36,4.95-.15,10.03-1.2,14.84-2.55,11.68-13.31,19.02-25.68,18.12-11.01-.79-20.67-10.01-21.5-21.32-.56-7.56-.59-15.22-.03-22.77,.96-12.83,12.25-22.36,24.98-21.76,12.63,.59,22.73,10.88,23.06,23.53,.08,3.11,.01,6.23,.01,9.35l.36,.02Zm-37.06-.11c0,3.12-.1,6.24,.02,9.35,.25,6.63,5.28,11.81,11.81,12.29,6.35,.46,12.49-4.25,12.99-10.86,.52-6.94,.53-13.97,.03-20.91-.5-6.87-6.35-11.27-13.26-10.87-6.31,.36-11.29,5.47-11.57,12.02-.13,2.99-.02,5.99-.02,8.98Z"/><path d="M80.67,310.64c1.48-4.27,2.66-7.63,3.81-10.99,2.97-8.71,5.88-17.45,8.9-26.14,1.2-3.44,3.88-5.12,6.75-4.5,3.52,.76,5.57,4.05,4.33,7.77-6.02,18.05-12.18,36.06-18.3,54.08-.91,2.67-2.83,4.04-5.66,3.97-3.26-.08-4.78-2.15-5.73-4.98-5.47-16.27-10.98-32.53-16.48-48.79-.44-1.3-.96-2.57-1.33-3.89-1.08-3.87,.24-6.78,3.53-7.92,3.2-1.11,6.18,.47,7.49,4.27,3.58,10.34,7.04,20.73,10.55,31.1,.58,1.7,1.2,3.38,2.14,6.03Z"/><path d="M204.99,281.13c0,15.07,0,30.02,0,44.98,0,1.25,.11,2.53-.13,3.73-.6,3.02-2.39,4.92-5.62,4.97-3.22,.05-5.13-1.69-5.79-4.75-.26-1.2-.2-2.48-.2-3.72-.01-13.72,0-27.44,0-41.15,0-1.35,0-2.7,0-4.58-3.86,0-7.42,.03-10.99,0-4.69-.05-7.16-2.04-7.23-5.73-.07-3.86,2.47-5.98,7.35-5.99,11.22-.03,22.44-.03,33.67,0,4.6,.01,7.15,2.12,7.19,5.78,.04,3.7-2.48,5.85-7.04,5.94-3.36,.06-6.73,.06-10.09,.1-.22,0-.44,.17-1.09,.43Z"/><path d="M229.19,189.09c0,2.99-1.54,4.98-4.49,5.59-1.33,.27-2.74,.18-4.11,.18-17.22,.01-34.43,.01-51.65,.01s-34.19,0-51.29-.01c-1.37,0-2.77,.09-4.1-.17-2.96-.6-4.51-2.58-4.53-5.57-.01-3,1.58-4.95,4.5-5.6,1.19-.27,2.48-.16,3.73-.16,34.56-.01,69.12-.01,103.69,0,1.24,0,2.53-.11,3.73,.15,2.92,.64,4.52,2.58,4.52,5.58Z"/><path d="M229.19,189.09c0,2.99-1.54,4.98-4.49,5.59-1.33,.27-2.74,.18-4.11,.18-17.22,.01-34.43,.01-51.65,.01s-34.19,0-51.29-.01c-1.37,0-2.77,.09-4.1-.17-2.96-.6-4.51-2.58-4.53-5.57-.01-3,1.58-4.95,4.5-5.6,1.19-.27,2.48-.16,3.73-.16,34.56-.01,69.12-.01,103.69,0,1.24,0,2.53-.11,3.73,.15,2.92,.64,4.52,2.58,4.52,5.58Z"/></svg>